<?xml version="1.0" encoding="UTF-8" standalone="no"?>
<!-- Created with Inkscape (http://www.inkscape.org/) -->
<svg
   xmlns:dc="http://purl.org/dc/elements/1.1/"
   xmlns:cc="http://web.resource.org/cc/"
   xmlns:rdf="http://www.w3.org/1999/02/22-rdf-syntax-ns#"
   xmlns:svg="http://www.w3.org/2000/svg"
   xmlns="http://www.w3.org/2000/svg"
   xmlns:sodipodi="http://sodipodi.sourceforge.net/DTD/sodipodi-0.dtd"
   xmlns:inkscape="http://www.inkscape.org/namespaces/inkscape"
   width="744.09448819"
   height="1052.3622047"
   id="svg2"
   sodipodi:version="0.32"
   inkscape:version="0.45"
   sodipodi:docbase="/home/william/eofsim/data"
   sodipodi:docname="ground.svg"
   inkscape:output_extension="org.inkscape.output.svg.inkscape"
   inkscape:export-filename="/home/william/Desktop/ground.png"
   inkscape:export-xdpi="90"
   inkscape:export-ydpi="90"
   sodipodi:modified="true">
  <defs
     id="defs4" />
  <sodipodi:namedview
     id="base"
     pagecolor="#ffffff"
     bordercolor="#666666"
     borderopacity="1.0"
     gridtolerance="10000"
     guidetolerance="10"
     objecttolerance="10"
     inkscape:pageopacity="0.0"
     inkscape:pageshadow="2"
     inkscape:zoom="2.3359371"
     inkscape:cx="128"
     inkscape:cy="127.99996"
     inkscape:document-units="px"
     inkscape:current-layer="layer1" />
  <metadata
     id="metadata7">
    <rdf:RDF>
      <cc:Work
         rdf:about="">
        <dc:format>image/svg+xml</dc:format>
        <dc:type
           rdf:resource="http://purl.org/dc/dcmitype/StillImage" />
      </cc:Work>
    </rdf:RDF>
  </metadata>
  <g
     inkscape:label="Layer 1"
     inkscape:groupmode="layer"
     id="layer1">
    <rect
       style="opacity:1;fill:#7bcd5a;fill-opacity:1;fill-rule:nonzero;stroke:none;stroke-width:1;stroke-linecap:round;stroke-linejoin:round;stroke-miterlimit:4;stroke-dasharray:none;stroke-opacity:1"
       id="rect2160"
       width="440"
       height="451.42856"
       x="62.857143"
       y="89.505043"
       transform="matrix(-0.5818182,0,0,-0.5670886,292.57144,1103.1195)" />
    <path
       style="opacity:1;fill:#4ead28;fill-opacity:1;fill-rule:nonzero;stroke:none;stroke-width:1;stroke-linecap:round;stroke-linejoin:round;stroke-miterlimit:4;stroke-dasharray:none;stroke-opacity:1"
       d="M 131.42474,1013.4057 L 133.56521,974.87724 L 169.52508,973.59296 L 167.38461,1013.8338 L 131.42474,1013.4057 z "
       id="path3133"
       transform="matrix(-1,0,0,-1,256.00001,1848.7244)" />
    <path
       style="opacity:1;fill:#4dc243;fill-opacity:1;fill-rule:nonzero;stroke:none;stroke-width:1;stroke-linecap:round;stroke-linejoin:round;stroke-miterlimit:4;stroke-dasharray:none;stroke-opacity:1"
       d="M 28.682273,822.04781 L 26.113711,864.00099 L 86.474913,865.71336 L 89.471568,823.33209 L 28.682273,822.04781 z "
       id="path3135"
       transform="matrix(-1,0,0,-1,255.57191,1849.1525)" />
    <path
       style="opacity:1;fill:#74c142;fill-opacity:1;fill-rule:nonzero;stroke:none;stroke-width:1;stroke-linecap:round;stroke-linejoin:round;stroke-miterlimit:4;stroke-dasharray:none;stroke-opacity:1"
       d="M 86.046819,808.34882 L 83.478257,848.58962 L 140.8428,849.01771 L 143.41137,821.61972 L 117.29765,820.76353 L 116.86956,807.49263 L 86.046819,808.34882 z "
       id="path3137"
       transform="matrix(-1,0,0,-1,232.02677,1852.1491)" />
    <path
       style="opacity:1;fill:#9ae865;fill-opacity:1;fill-rule:nonzero;stroke:none;stroke-width:1;stroke-linecap:round;stroke-linejoin:round;stroke-miterlimit:4;stroke-dasharray:none;stroke-opacity:1"
       d="M 3.424749,799.35885 L 2.5685618,843.45249 L 26.969899,844.30868 L 29.110367,821.61972 L 42.381269,822.4759 L 45.377924,799.78694 L 3.424749,799.35885 z "
       id="path3139"
       transform="matrix(-1,0,0,-1,256.00001,1848.7244)" />
    <path
       style="opacity:1;fill:#45c245;fill-opacity:1;fill-rule:nonzero;stroke:none;stroke-width:1;stroke-linecap:round;stroke-linejoin:round;stroke-miterlimit:4;stroke-dasharray:none;stroke-opacity:1"
       d="M 22.688962,899.53276 L 21.832775,941.05784 L 56.080265,941.05784 L 57.364546,919.22506 L 82.193976,920.08125 L 83.050164,883.69329 L 22.688962,899.53276 z "
       id="path3141"
       transform="matrix(-1,0,0,-1,256.00001,1848.7244)" />
    <path
       style="opacity:1;fill:#91e865;fill-opacity:1;fill-rule:nonzero;stroke:none;stroke-width:1;stroke-linecap:round;stroke-linejoin:round;stroke-miterlimit:4;stroke-dasharray:none;stroke-opacity:1"
       d="M 186.22073,812.20166 L 189.64548,872.99095 L 221.7525,872.13477 L 218.75584,841.74012 L 186.22073,812.20166 z "
       id="path3143"
       transform="matrix(-1,0,0,-1,256.00001,1848.7244)" />
    <path
       style="opacity:1;fill:#64be4c;fill-opacity:1;fill-rule:nonzero;stroke:none;stroke-width:1;stroke-linecap:round;stroke-linejoin:round;stroke-miterlimit:4;stroke-dasharray:none;stroke-opacity:1"
       d="M 105.31103,889.25851 L 105.31103,921.36553 L 133.56521,921.79363 L 133.13712,902.52941 L 160.9632,902.95751 L 160.53511,861.86052 L 118.58193,861.43242 L 105.31103,889.25851 z "
       id="path3145"
       transform="matrix(-1,0,0,-1,256.00001,1848.7244)" />
    <path
       style="opacity:1;fill:#4cb33f;fill-opacity:1;fill-rule:nonzero;stroke:none;stroke-width:1;stroke-linecap:round;stroke-linejoin:round;stroke-miterlimit:4;stroke-dasharray:none;stroke-opacity:1"
       d="M 185.36454,894.82373 L 185.79263,942.77021 L 113.44481,942.34212 L 112.58862,965.88727 L 218.32775,966.74346 L 216.18728,894.39563 L 185.36454,894.82373 z "
       id="path3147"
       transform="matrix(-1,0,0,-1,256.00001,1848.7244)" />
    <path
       style="opacity:1;fill:#5ac54e;fill-opacity:1;fill-rule:nonzero;stroke:none;stroke-width:1;stroke-linecap:round;stroke-linejoin:round;stroke-miterlimit:4;stroke-dasharray:none;stroke-opacity:1"
       d="M 24.401337,958.60968 L 24.401337,1012.5495 L 77.484947,1012.9776 L 77.91304,958.18158 L 24.401337,958.60968 z "
       id="path3149"
       transform="matrix(-1,0,0,-1,256.00001,1848.7244)" />
    <path
       style="opacity:1;fill:#70ba4c;fill-opacity:1;fill-rule:nonzero;stroke:none;stroke-width:1;stroke-linecap:round;stroke-linejoin:round;stroke-miterlimit:4;stroke-dasharray:none;stroke-opacity:1"
       d="M 133.13712,902.52941 L 133.13712,921.36553 L 120.29431,921.79363 L 119.86622,941.48593 L 185.79263,942.77021 L 185.36454,896.10801 L 161.3913,895.25182 L 159.67892,902.10132 L 133.13712,902.52941 z "
       id="path3161"
       transform="matrix(-1,0,0,-1,256.00001,1848.7244)" />
    <path
       style="opacity:1;fill:#76ea44;fill-opacity:1;fill-rule:nonzero;stroke:none;stroke-width:1;stroke-linecap:round;stroke-linejoin:round;stroke-miterlimit:4;stroke-dasharray:none;stroke-opacity:1"
       d="M 21.404681,941.48593 L 23.973243,957.75349 L 78.341134,958.18158 L 82.193976,920.08125 L 57.79264,918.79697 L 56.936452,941.05784 L 21.404681,941.48593 z "
       id="path3163"
       transform="matrix(-1,0,0,-1,256.00001,1848.7244)" />
    <path
       style="opacity:1;fill:#4fbd33;fill-opacity:1;fill-rule:nonzero;stroke:none;stroke-width:1;stroke-linecap:round;stroke-linejoin:round;stroke-miterlimit:4;stroke-dasharray:none;stroke-opacity:1"
       d="M 169.09698,973.59296 L 170.38126,966.74346 L 113.01672,965.88727 L 111.73244,1012.1214 L 130.56856,1013.8338 L 133.13712,975.30533 L 169.09698,973.59296 z "
       id="path3165"
       transform="matrix(-1,0,0,-1,256.00001,1848.7244)" />
    <path
       style="opacity:1;fill:#3ac13b;fill-opacity:1;fill-rule:nonzero;stroke:none;stroke-width:1;stroke-linecap:round;stroke-linejoin:round;stroke-miterlimit:4;stroke-dasharray:none;stroke-opacity:1"
       d="M 77.056853,1012.1214 L 111.73244,1011.6933 L 113.01672,941.91403 L 119.43812,941.91403 L 120.29431,922.22172 L 81.337789,920.50935 L 78.341134,959.03777 L 77.056853,1012.1214 z "
       id="path3167"
       transform="matrix(-1,0,0,-1,256.00001,1848.7244)" />
    <path
       style="opacity:1;fill:#68c158;fill-opacity:1;fill-rule:nonzero;stroke:none;stroke-width:1;stroke-linecap:round;stroke-linejoin:round;stroke-miterlimit:4;stroke-dasharray:none;stroke-opacity:1"
       d="M 82.193976,920.50935 L 104.88294,921.36553 L 104.45485,888.40232 L 119.01003,861.86052 L 107.87959,844.73677 L 101.45819,845.59296 L 100.17391,855.86721 L 88.187287,868.28192 L 68.923074,868.28192 L 37.672239,893.11135 L 37.244146,895.67992 L 82.62207,884.12139 L 82.193976,920.50935 z "
       id="path3169"
       transform="matrix(-1,0,0,-1,256.00001,1848.7244)" />
    <path
       style="opacity:1;fill:#73df51;fill-opacity:1;fill-rule:nonzero;stroke:none;stroke-width:1;stroke-linecap:round;stroke-linejoin:round;stroke-miterlimit:4;stroke-dasharray:none;stroke-opacity:1"
       d="M 108.30769,845.16487 L 119.01003,861.86052 L 159.67892,862.28861 L 160.9632,895.25182 L 185.36454,895.67992 L 190.07357,873.41905 L 187.9331,846.02105 L 108.30769,845.16487 z "
       id="path3171"
       transform="matrix(-1,0,0,-1,256.00001,1848.7244)" />
    <path
       style="opacity:1;fill:#7ad63a;fill-opacity:1;fill-rule:nonzero;stroke:none;stroke-width:1;stroke-linecap:round;stroke-linejoin:round;stroke-miterlimit:4;stroke-dasharray:none;stroke-opacity:1"
       d="M 190.50166,872.99095 L 185.36454,894.82373 L 215.75919,894.82373 L 217.04347,920.50935 L 254.71571,900.81704 L 255.1438,872.99095 L 190.50166,872.99095 z "
       id="path3173"
       transform="matrix(-1,0,0,-1,256.00001,1848.7244)" />
    <path
       style="opacity:1;fill:#57d63a;fill-opacity:1;fill-rule:nonzero;stroke:none;stroke-width:1;stroke-linecap:round;stroke-linejoin:round;stroke-miterlimit:4;stroke-dasharray:none;stroke-opacity:1"
       d="M 140.41471,798.93076 L 141.2709,816.0545 L 166.95651,817.76687 L 164.81605,845.16487 L 187.50501,845.59296 L 185.36454,812.20166 L 140.41471,798.93076 z "
       id="path3175"
       transform="matrix(-1,0,0,-1,256.00001,1848.7244)" />
    <path
       style="opacity:1;fill:#56d63a;fill-opacity:1;fill-rule:nonzero;stroke:none;stroke-width:1;stroke-linecap:round;stroke-linejoin:round;stroke-miterlimit:4;stroke-dasharray:none;stroke-opacity:1"
       d="M 89.471568,797.21838 L 81.337789,822.4759 L 89.471568,822.904 L 88.615381,835.74681 L 99.317722,845.59296 L 107.4515,843.88059 L 110.02006,797.64647 L 89.471568,797.21838 z "
       id="path3177"
       transform="matrix(-1,0,0,-1,256.00001,1848.7244)" />
    <path
       style="opacity:1;fill:#5eab4c;fill-opacity:1;fill-rule:nonzero;stroke:none;stroke-width:1;stroke-linecap:round;stroke-linejoin:round;stroke-miterlimit:4;stroke-dasharray:none;stroke-opacity:1"
       d="M 109.59197,796.79029 L 109.59197,804.49597 L 140.41471,804.06788 L 140.41471,797.64647 L 109.59197,796.79029 z "
       id="path3179"
       transform="matrix(-1,0,0,-1,256.00001,1848.7244)" />
    <path
       style="opacity:1;fill:#60a051;fill-opacity:1;fill-rule:nonzero;stroke:none;stroke-width:1;stroke-linecap:round;stroke-linejoin:round;stroke-miterlimit:4;stroke-dasharray:none;stroke-opacity:1"
       d="M 140.8428,796.36219 L 217.47156,797.64647 L 219.18394,840.88393 L 186.64882,812.20166 L 140.8428,796.36219 z "
       id="path3181"
       transform="matrix(-1,0,0,-1,256.00001,1848.7244)" />
    <path
       style="opacity:1;fill:#60a051;fill-opacity:1;fill-rule:nonzero;stroke:none;stroke-width:1;stroke-linecap:round;stroke-linejoin:round;stroke-miterlimit:4;stroke-dasharray:none;stroke-opacity:1"
       d="M 2.5685618,844.30868 L 2.1404681,899.96085 L 21.832775,899.10466 L 43.66555,881.12473 L 31.678928,864.85717 L 24.82943,864.85717 L 26.113711,846.02105 L 2.5685618,844.30868 z "
       id="path3183"
       transform="matrix(-1,0,0,-1,256.00001,1848.7244)" />
    <path
       style="opacity:1;fill:#56b940;fill-opacity:1;fill-rule:nonzero;stroke:none;stroke-width:1;stroke-linecap:round;stroke-linejoin:round;stroke-miterlimit:4;stroke-dasharray:none;stroke-opacity:1"
       d="M 170.38126,967.17155 L 167.8127,1012.9776 L 217.04347,1014.2618 L 217.47156,967.59964 L 170.38126,967.17155 z "
       id="path3185"
       transform="matrix(-1,0,0,-1,256.00001,1848.7244)" />
    <path
       style="opacity:1;fill:#3fb225;fill-opacity:1;fill-rule:nonzero;stroke:none;stroke-width:1;stroke-linecap:round;stroke-linejoin:round;stroke-miterlimit:4;stroke-dasharray:none;stroke-opacity:1"
       d="M 1.2842809,901.67323 L 1.2842809,952.61637 L 12.414715,941.91403 L 21.404681,910.2351 L 21.832775,900.81704 L 1.2842809,901.67323 z "
       id="path3187"
       transform="matrix(-1,0,0,-1,256.00001,1848.7244)" />
    <path
       style="opacity:1;fill:#51c538;fill-opacity:1;fill-rule:nonzero;stroke:none;stroke-width:1;stroke-linecap:round;stroke-linejoin:round;stroke-miterlimit:4;stroke-dasharray:none;stroke-opacity:1"
       d="M 21.832775,941.91403 L 0.85618725,965.88727 L 1.2842809,1012.1214 L 22.688962,1012.1214 L 21.832775,941.91403 z "
       id="path3189"
       transform="matrix(-1,0,0,-1,256.00001,1848.7244)" />
    <path
       style="opacity:1;fill:#4bc54b;fill-opacity:1;fill-rule:nonzero;stroke:none;stroke-width:1;stroke-linecap:round;stroke-linejoin:round;stroke-miterlimit:4;stroke-dasharray:none;stroke-opacity:1"
       d="M 218.75584,798.07457 L 254.28761,848.58962 L 254.71571,872.13477 L 223.03678,871.27858 L 218.75584,798.07457 z "
       id="path3191"
       transform="matrix(-1,0,0,-1,256.00001,1848.7244)" />
    <path
       style="opacity:1;fill:#7fd05b;fill-opacity:1;fill-rule:nonzero;stroke:none;stroke-width:1;stroke-linecap:round;stroke-linejoin:round;stroke-miterlimit:4;stroke-dasharray:none;stroke-opacity:1"
       d="M 220.46822,798.07457 L 254.28761,797.21838 L 254.71571,846.87724 L 220.46822,798.07457 z "
       id="path3193"
       transform="matrix(-1,0,0,-1,256.00001,1848.7244)" />
    <path
       style="opacity:1;fill:#5abc2f;fill-opacity:1;fill-rule:nonzero;stroke:none;stroke-width:1;stroke-linecap:round;stroke-linejoin:round;stroke-miterlimit:4;stroke-dasharray:none;stroke-opacity:1"
       d="M 217.47156,921.79363 L 219.18394,966.74346 L 253.85952,982.58292 L 254.71571,902.52941 L 217.47156,921.79363 z "
       id="path3195"
       transform="matrix(-1,0,0,-1,256.00001,1848.7244)" />
    <path
       style="opacity:1;fill:#50be4b;fill-opacity:1;fill-rule:nonzero;stroke:none;stroke-width:1;stroke-linecap:round;stroke-linejoin:round;stroke-miterlimit:4;stroke-dasharray:none;stroke-opacity:1"
       d="M 218.75584,968.02774 L 218.75584,1049.7936 L 253.00333,1050.2217 L 254.28761,984.2953 L 218.75584,968.02774 z "
       id="path3197"
       transform="matrix(-1,0,0,-1,256.00001,1848.7244)" />
    <path
       style="opacity:1;fill:#57a539;fill-opacity:1;fill-rule:nonzero;stroke:none;stroke-width:1;stroke-linecap:round;stroke-linejoin:round;stroke-miterlimit:4;stroke-dasharray:none;stroke-opacity:1"
       d="M 1.7123745,1036.9508 L 42.809363,1037.807 L 50.515048,1014.2618 L 1.2842809,1013.8338 L 1.7123745,1036.9508 z "
       id="path3199"
       transform="matrix(-1,0,0,-1,256.00001,1848.7244)" />
    <path
       style="opacity:1;fill:#4dc642;fill-opacity:1;fill-rule:nonzero;stroke:none;stroke-width:1;stroke-linecap:round;stroke-linejoin:round;stroke-miterlimit:4;stroke-dasharray:none;stroke-opacity:1"
       d="M 51.799329,1014.2618 L 39.384614,1051.0779 L 75.344478,1050.6498 L 74.488291,1030.1013 L 110.44816,1024.9642 L 111.30434,1013.8338 L 51.799329,1014.2618 z "
       id="path3201"
       transform="matrix(-1,0,0,-1,256.00001,1848.7244)" />
    <path
       style="opacity:1;fill:#77ce4e;fill-opacity:1;fill-rule:nonzero;stroke:none;stroke-width:1;stroke-linecap:round;stroke-linejoin:round;stroke-miterlimit:4;stroke-dasharray:none;stroke-opacity:1"
       d="M 74.916385,1030.9575 L 76.200666,1050.2217 L 130.14046,1051.0779 L 130.99665,1015.118 L 112.58862,1014.2618 L 111.30434,1024.9642 L 74.916385,1030.9575 z "
       id="path3203"
       transform="matrix(-1,0,0,-1,256.00001,1848.7244)" />
    <path
       style="opacity:1;fill:#49be2e;fill-opacity:1;fill-rule:nonzero;stroke:none;stroke-width:1;stroke-linecap:round;stroke-linejoin:round;stroke-miterlimit:4;stroke-dasharray:none;stroke-opacity:1"
       d="M 131.85284,1051.0779 L 162.67558,1050.6498 L 184.93645,1015.5461 L 132.28093,1015.118 L 131.85284,1051.0779 z "
       id="path3205"
       transform="matrix(-1,0,0,-1,256.00001,1848.7244)" />
    <path
       style="opacity:1;fill:#9bd043;fill-opacity:1;fill-rule:nonzero;stroke:none;stroke-width:1;stroke-linecap:round;stroke-linejoin:round;stroke-miterlimit:4;stroke-dasharray:none;stroke-opacity:1"
       d="M 164.38795,1051.0779 L 218.32775,1050.6498 L 217.04347,1015.9742 L 186.64882,1016.4023 L 164.38795,1051.0779 z "
       id="path3207"
       transform="matrix(-1,0,0,-1,256.00001,1848.7244)" />
    <path
       style="opacity:1;fill:#78be2e;fill-opacity:1;fill-rule:nonzero;stroke:none;stroke-width:1;stroke-linecap:round;stroke-linejoin:round;stroke-miterlimit:4;stroke-dasharray:none;stroke-opacity:1"
       d="M 1.7123745,1038.2351 L 1.7123745,1051.0779 L 37.672239,1051.0779 L 41.953175,1039.5194 L 1.7123745,1038.2351 z "
       id="path3209"
       transform="matrix(-1,0,0,-1,256.00001,1848.7244)" />
    <path
       style="opacity:1;fill:#4d79a5;fill-opacity:1;fill-rule:nonzero;stroke:none;stroke-width:1;stroke-linecap:round;stroke-linejoin:round;stroke-miterlimit:4;stroke-dasharray:none;stroke-opacity:1"
       d="M 157.37925,812.49707 L 163.90856,799.97976 L 156.73769,799.97976 L 152.18495,806.07643 L 140.38889,808.57962 L 129.97777,814.8503 L 122.76627,815.22329 L 115.28944,810.09407 L 110.66764,810.61051 L 107.05509,812.78602 L 97.91347,811.33375 L 88.187287,812.20166 L 77.056853,826.32875 L 68.923074,836.1749 L 56.080265,837.03109 L 40.668895,841.31203 L 33.819397,852.44245 L 36.816052,868.71002 L 48.802673,879.41236 L 47.090299,884.97757 L 33.819396,896.96419 L 25.257524,912.80366 L 20.548495,929.49931 L 14.12709,946.19496 L 1.7123745,962.89061 L 1.7123745,968.88393 L 10.702341,957.75349 L 19.264213,944.91068 L 28.254179,925.64647 L 34.675584,905.52606 L 38.95652,895.67992 L 53.08361,881.55283 L 66.782606,871.27858 L 83.050163,862.28862 L 104.45484,855.43911 L 106.16722,850.73008 L 94.180598,841.31202 L 76.200666,836.603 L 83.906351,822.904 L 91.612037,816.48259 L 100.74428,817.45819 L 106.24994,815.92221 L 111.20742,816.08558 L 122.35804,821.53766 L 130.67451,822.5393 L 141.33181,820.3779 L 157.37925,812.49707 z "
       id="path3159"
       transform="matrix(-1,0,0,-1,257.71238,1852.342)"
       sodipodi:nodetypes="ccccccccccccccccccccccccccccccccccccccccccccccc" />
    <path
       style="opacity:1;fill:#ffffff;fill-opacity:0.50196078;fill-rule:nonzero;stroke:none;stroke-width:1;stroke-linecap:round;stroke-linejoin:round;stroke-miterlimit:4;stroke-dasharray:none;stroke-opacity:1"
       d="M 41.525082,867.85383 L 88.615381,839.59965 L 47.518392,875.13142 L 41.525082,867.85383 z "
       id="path3211"
       sodipodi:nodetypes="cccc"
       transform="matrix(-1,0,0,-1,256.00001,1848.7244)" />
    <path
       style="opacity:1;fill:#ffffff;fill-opacity:0.50196078;fill-rule:nonzero;stroke:none;stroke-width:1;stroke-linecap:round;stroke-linejoin:round;stroke-miterlimit:4;stroke-dasharray:none;stroke-opacity:1"
       d="M 44.093643,869.5662 L 46.234112,872.13477 L 86.474913,840.45584 L 44.093643,869.5662 z "
       id="path3213"
       sodipodi:nodetypes="cccc"
       inkscape:export-xdpi="90"
       inkscape:export-ydpi="90"
       transform="matrix(-1,0,0,-1,256.00001,1848.7244)" />
    <path
       style="opacity:1;fill:#4d79a5;fill-opacity:1;fill-rule:nonzero;stroke:none;stroke-width:1;stroke-linecap:round;stroke-linejoin:round;stroke-miterlimit:4;stroke-dasharray:none;stroke-opacity:1"
       d="M 152.82943,1049.3655 L 150.26086,1045.5127 L 152.82942,1039.0913 L 156.68227,1030.9575 L 156.68227,1022.8237 L 160.53511,1018.1147 L 156.68227,1008.6967 L 149.83277,1001.419 L 148.97658,994.56954 L 145.12374,988.14814 L 136.98996,980.01436 L 135.70568,971.45249 L 139.98662,961.17824 L 146.40802,958.60968 L 153.25752,953.04446 L 161.81939,948.76352 L 171.23745,945.76687 L 178.08695,940.62975 L 183.65217,933.35215 L 191.78595,922.64981 L 193.49832,914.94413 L 196.06688,907.66654 L 201.6321,902.95751 L 206.34113,896.5361 L 211.47825,890.54279 L 218.75584,884.97757 L 228.1739,874.27523 L 233.73912,865.71336 L 242.30099,861.86052 L 249.57858,859.29196 L 253.85952,861.86052 L 253.85952,866.56955 L 250.00668,864.85717 L 245.72574,869.5662 L 244.44146,874.27523 L 238.02006,880.69664 L 234.16721,884.12139 L 226.03344,888.83042 L 219.18394,895.25182 L 210.62206,901.24513 L 206.76922,908.09463 L 202.48829,913.23175 L 200.77591,921.36553 L 198.63544,926.50266 L 195.63879,934.63644 L 187.50501,940.20165 L 178.08695,947.05115 L 175.09029,953.04446 L 174.23411,958.18158 L 176.37457,962.89061 L 181.0836,965.03108 L 184.08026,968.45583 L 188.78929,973.59296 L 194.7826,974.02105 L 200.77591,971.45249 L 208.0535,968.88393 L 214.903,968.45583 L 220.46822,970.16821 L 225.60534,974.44914 L 233.31103,977.87389 L 239.73243,978.30199 L 245.72574,983.01101 L 253.85952,989.86051 L 253.85952,998.42239 L 245.29765,990.7167 L 240.58862,987.29195 L 235.4515,984.2953 L 227.31772,981.72673 L 222.60869,978.73008 L 216.61538,975.30533 L 209.76588,974.44914 L 201.6321,974.87724 L 196.92307,978.30199 L 187.07692,979.15817 L 177.65886,974.44914 L 172.09364,965.88727 L 165.67223,960.32205 L 161.3913,964.1749 L 154.96989,968.02774 L 148.54849,969.74011 L 143.83946,973.59296 L 142.55517,979.58627 L 152.82942,984.29529 L 156.25418,994.14145 L 155.82608,1000.1348 L 163.53176,1007.8404 L 165.24414,1016.8304 L 165.67223,1022.8237 L 164.81605,1030.9575 L 160.10702,1036.5227 L 157.11036,1043.8003 L 160.10702,1049.3655 L 152.82943,1049.3655 z "
       id="path4204"
       sodipodi:nodetypes="ccccccccccccccccccccccccccccccccccccccccccccccccccccccccccccccccccccccccccccccccccccccccccccc"
       transform="matrix(-1,0,0,-1,253.85952,1845.7277)" />
    <path
       style="opacity:1;fill:#ffffff;fill-opacity:0.50196078;fill-rule:nonzero;stroke:none;stroke-width:1;stroke-linecap:round;stroke-linejoin:round;stroke-miterlimit:4;stroke-dasharray:none;stroke-opacity:1"
       d="M 150.699,971.73342 L 167.01672,953.01603 L 158.37793,968.85382 L 150.699,971.73342 z "
       id="path4206"
       transform="matrix(-1,0,0,-1,256.00001,1848.7244)" />
  </g>
</svg>
