<?xml version="1.0" encoding="UTF-8" standalone="no"?>
<!-- Created with Inkscape (http://www.inkscape.org/) -->
<svg
   xmlns:dc="http://purl.org/dc/elements/1.1/"
   xmlns:cc="http://web.resource.org/cc/"
   xmlns:rdf="http://www.w3.org/1999/02/22-rdf-syntax-ns#"
   xmlns:svg="http://www.w3.org/2000/svg"
   xmlns="http://www.w3.org/2000/svg"
   xmlns:sodipodi="http://sodipodi.sourceforge.net/DTD/sodipodi-0.dtd"
   xmlns:inkscape="http://www.inkscape.org/namespaces/inkscape"
   width="744.09448819"
   height="1052.3622047"
   id="svg2"
   sodipodi:version="0.32"
   inkscape:version="0.45"
   sodipodi:docname="runway.svg"
   sodipodi:docbase="/home/william/Desktop"
   inkscape:output_extension="org.inkscape.output.svg.inkscape"
   inkscape:export-filename="/home/william/Desktop/runway.png"
   inkscape:export-xdpi="90"
   inkscape:export-ydpi="90"
   sodipodi:modified="true">
  <defs
     id="defs4" />
  <sodipodi:namedview
     id="base"
     pagecolor="#ffffff"
     bordercolor="#666666"
     borderopacity="1.0"
     gridtolerance="10000"
     guidetolerance="10"
     objecttolerance="10"
     inkscape:pageopacity="0.0"
     inkscape:pageshadow="2"
     inkscape:zoom="0.598"
     inkscape:cx="12.500005"
     inkscape:cy="500"
     inkscape:document-units="px"
     inkscape:current-layer="layer1"
     showguides="true"
     inkscape:guide-bbox="true" />
  <metadata
     id="metadata7">
    <rdf:RDF>
      <cc:Work
         rdf:about="">
        <dc:format>image/svg+xml</dc:format>
        <dc:type
           rdf:resource="http://purl.org/dc/dcmitype/StillImage" />
      </cc:Work>
    </rdf:RDF>
  </metadata>
  <g
     inkscape:label="Layer 1"
     inkscape:groupmode="layer"
     id="layer1">
    <rect
       style="opacity:1;fill:#606040;fill-opacity:1;fill-rule:nonzero;stroke:none;stroke-width:1;stroke-linecap:round;stroke-linejoin:round;stroke-miterlimit:4;stroke-dasharray:none;stroke-opacity:1"
       id="rect3133"
       width="194"
       height="336"
       x="40"
       y="668.36218"
       transform="matrix(0.128866,0,0,2.9761905,-5.1546372,-1936.811)" />
    <rect
       style="opacity:1;fill:#ffffff;fill-opacity:1;fill-rule:nonzero;stroke:none;stroke-width:1;stroke-linecap:round;stroke-linejoin:round;stroke-miterlimit:4;stroke-dasharray:none;stroke-opacity:1"
       id="rect2160"
       width="234.28572"
       height="411.42856"
       x="157.14285"
       y="232.36218"
       transform="matrix(8.5365836e-3,0,0,2.3819445,20.658534,-491.11164)" />
    <rect
       transform="matrix(8.5365836e-3,0,0,2.3819445,-0.3414622,-491.11163)"
       y="232.36218"
       x="157.14285"
       height="411.42856"
       width="234.28572"
       id="rect4104"
       style="opacity:1;fill:#ffffff;fill-opacity:1;fill-rule:nonzero;stroke:none;stroke-width:1;stroke-linecap:round;stroke-linejoin:round;stroke-miterlimit:4;stroke-dasharray:none;stroke-opacity:1" />
    <rect
       transform="matrix(4.2682919e-3,0,0,2.4305556e-2,11.329271,1011.7145)"
       y="232.36218"
       x="157.14285"
       height="411.42856"
       width="234.28572"
       id="rect4110"
       style="opacity:1;fill:#ffffff;fill-opacity:1;fill-rule:nonzero;stroke:none;stroke-width:1;stroke-linecap:round;stroke-linejoin:round;stroke-miterlimit:4;stroke-dasharray:none;stroke-opacity:1" />
    <rect
       transform="matrix(4.2682919e-3,0,0,2.4305556e-2,11.329271,991.71448)"
       y="232.36218"
       x="157.14285"
       height="411.42856"
       width="234.28572"
       id="rect4112"
       style="opacity:1;fill:#ffffff;fill-opacity:1;fill-rule:nonzero;stroke:none;stroke-width:1;stroke-linecap:round;stroke-linejoin:round;stroke-miterlimit:4;stroke-dasharray:none;stroke-opacity:1" />
    <rect
       style="opacity:1;fill:#ffffff;fill-opacity:1;fill-rule:nonzero;stroke:none;stroke-width:1;stroke-linecap:round;stroke-linejoin:round;stroke-miterlimit:4;stroke-dasharray:none;stroke-opacity:1"
       id="rect4114"
       width="234.28572"
       height="411.42856"
       x="157.14285"
       y="232.36218"
       transform="matrix(4.2682919e-3,0,0,2.4305556e-2,11.329271,971.71448)" />
    <rect
       transform="matrix(4.2682919e-3,0,0,2.4305556e-2,11.329271,951.71448)"
       y="232.36218"
       x="157.14285"
       height="411.42856"
       width="234.28572"
       id="rect4116"
       style="opacity:1;fill:#ffffff;fill-opacity:1;fill-rule:nonzero;stroke:none;stroke-width:1;stroke-linecap:round;stroke-linejoin:round;stroke-miterlimit:4;stroke-dasharray:none;stroke-opacity:1" />
    <rect
       transform="matrix(4.2682919e-3,0,0,2.4305556e-2,11.329271,871.71448)"
       y="232.36218"
       x="157.14285"
       height="411.42856"
       width="234.28572"
       id="rect4124"
       style="opacity:1;fill:#ffffff;fill-opacity:1;fill-rule:nonzero;stroke:none;stroke-width:1;stroke-linecap:round;stroke-linejoin:round;stroke-miterlimit:4;stroke-dasharray:none;stroke-opacity:1" />
    <rect
       style="opacity:1;fill:#ffffff;fill-opacity:1;fill-rule:nonzero;stroke:none;stroke-width:1;stroke-linecap:round;stroke-linejoin:round;stroke-miterlimit:4;stroke-dasharray:none;stroke-opacity:1"
       id="rect4126"
       width="234.28572"
       height="411.42856"
       x="157.14285"
       y="232.36218"
       transform="matrix(4.2682919e-3,0,0,2.4305556e-2,11.329271,851.71448)" />
    <rect
       style="opacity:1;fill:#ffffff;fill-opacity:1;fill-rule:nonzero;stroke:none;stroke-width:1;stroke-linecap:round;stroke-linejoin:round;stroke-miterlimit:4;stroke-dasharray:none;stroke-opacity:1"
       id="rect4128"
       width="234.28572"
       height="411.42856"
       x="157.14285"
       y="232.36218"
       transform="matrix(4.2682919e-3,0,0,2.4305556e-2,11.329271,831.71448)" />
    <rect
       transform="matrix(4.2682919e-3,0,0,2.4305556e-2,11.329271,811.71448)"
       y="232.36218"
       x="157.14285"
       height="411.42856"
       width="234.28572"
       id="rect4130"
       style="opacity:1;fill:#ffffff;fill-opacity:1;fill-rule:nonzero;stroke:none;stroke-width:1;stroke-linecap:round;stroke-linejoin:round;stroke-miterlimit:4;stroke-dasharray:none;stroke-opacity:1" />
    <rect
       style="opacity:1;fill:#ffffff;fill-opacity:1;fill-rule:nonzero;stroke:none;stroke-width:1;stroke-linecap:round;stroke-linejoin:round;stroke-miterlimit:4;stroke-dasharray:none;stroke-opacity:1"
       id="rect4132"
       width="234.28572"
       height="411.42856"
       x="157.14285"
       y="232.36218"
       transform="matrix(4.2682919e-3,0,0,2.4305556e-2,11.329271,791.71448)" />
    <rect
       transform="matrix(4.2682919e-3,0,0,2.4305556e-2,11.329271,771.71448)"
       y="232.36218"
       x="157.14285"
       height="411.42856"
       width="234.28572"
       id="rect4134"
       style="opacity:1;fill:#ffffff;fill-opacity:1;fill-rule:nonzero;stroke:none;stroke-width:1;stroke-linecap:round;stroke-linejoin:round;stroke-miterlimit:4;stroke-dasharray:none;stroke-opacity:1" />
    <rect
       transform="matrix(4.2682919e-3,0,0,2.4305556e-2,11.329271,751.71448)"
       y="232.36218"
       x="157.14285"
       height="411.42856"
       width="234.28572"
       id="rect4136"
       style="opacity:1;fill:#ffffff;fill-opacity:1;fill-rule:nonzero;stroke:none;stroke-width:1;stroke-linecap:round;stroke-linejoin:round;stroke-miterlimit:4;stroke-dasharray:none;stroke-opacity:1" />
    <rect
       style="opacity:1;fill:#ffffff;fill-opacity:1;fill-rule:nonzero;stroke:none;stroke-width:1;stroke-linecap:round;stroke-linejoin:round;stroke-miterlimit:4;stroke-dasharray:none;stroke-opacity:1"
       id="rect4144"
       width="234.28572"
       height="411.42856"
       x="157.14285"
       y="232.36218"
       transform="matrix(4.2682919e-3,0,0,2.4305556e-2,11.329271,731.71448)" />
    <rect
       transform="matrix(4.2682919e-3,0,0,2.4305556e-2,11.329271,711.71448)"
       y="232.36218"
       x="157.14285"
       height="411.42856"
       width="234.28572"
       id="rect4146"
       style="opacity:1;fill:#ffffff;fill-opacity:1;fill-rule:nonzero;stroke:none;stroke-width:1;stroke-linecap:round;stroke-linejoin:round;stroke-miterlimit:4;stroke-dasharray:none;stroke-opacity:1" />
    <rect
       style="opacity:1;fill:#ffffff;fill-opacity:1;fill-rule:nonzero;stroke:none;stroke-width:1;stroke-linecap:round;stroke-linejoin:round;stroke-miterlimit:4;stroke-dasharray:none;stroke-opacity:1"
       id="rect4148"
       width="234.28572"
       height="411.42856"
       x="157.14285"
       y="232.36218"
       transform="matrix(4.2682919e-3,0,0,2.4305556e-2,11.329271,691.71448)" />
    <rect
       transform="matrix(4.2682919e-3,0,0,2.4305556e-2,11.329271,331.71447)"
       y="232.36218"
       x="157.14285"
       height="411.42856"
       width="234.28572"
       id="rect3197"
       style="opacity:1;fill:#ffffff;fill-opacity:1;fill-rule:nonzero;stroke:none;stroke-width:1;stroke-linecap:round;stroke-linejoin:round;stroke-miterlimit:4;stroke-dasharray:none;stroke-opacity:1" />
    <rect
       style="opacity:1;fill:#ffc000;fill-opacity:1;fill-rule:nonzero;stroke:none;stroke-width:1;stroke-linecap:round;stroke-linejoin:round;stroke-miterlimit:4;stroke-dasharray:none;stroke-opacity:1"
       id="rect4158"
       width="234.28572"
       height="411.42856"
       x="157.14285"
       y="232.36218"
       transform="matrix(0,-3.4146341e-2,5.5902791e-2,0,-11.989688,341.72804)" />
    <rect
       transform="matrix(0,-3.4146341e-2,5.5902791e-2,0,-11.989688,221.72804)"
       y="232.36218"
       x="157.14285"
       height="411.42856"
       width="234.28572"
       id="rect4160"
       style="opacity:1;fill:#ffc000;fill-opacity:1;fill-rule:nonzero;stroke:none;stroke-width:1;stroke-linecap:round;stroke-linejoin:round;stroke-miterlimit:4;stroke-dasharray:none;stroke-opacity:1" />
    <rect
       transform="matrix(4.2682919e-3,0,0,2.4305556e-2,11.329271,671.71448)"
       y="232.36218"
       x="157.14285"
       height="411.42856"
       width="234.28572"
       id="rect3163"
       style="opacity:1;fill:#ffffff;fill-opacity:1;fill-rule:nonzero;stroke:none;stroke-width:1;stroke-linecap:round;stroke-linejoin:round;stroke-miterlimit:4;stroke-dasharray:none;stroke-opacity:1" />
    <rect
       style="opacity:1;fill:#ffffff;fill-opacity:1;fill-rule:nonzero;stroke:none;stroke-width:1;stroke-linecap:round;stroke-linejoin:round;stroke-miterlimit:4;stroke-dasharray:none;stroke-opacity:1"
       id="rect3165"
       width="234.28572"
       height="411.42856"
       x="157.14285"
       y="232.36218"
       transform="matrix(4.2682919e-3,0,0,2.4305556e-2,11.329271,651.71448)" />
    <rect
       style="opacity:1;fill:#ffffff;fill-opacity:1;fill-rule:nonzero;stroke:none;stroke-width:1;stroke-linecap:round;stroke-linejoin:round;stroke-miterlimit:4;stroke-dasharray:none;stroke-opacity:1"
       id="rect3167"
       width="234.28572"
       height="411.42856"
       x="157.14285"
       y="232.36218"
       transform="matrix(4.2682919e-3,0,0,2.4305556e-2,11.329271,631.71447)" />
    <rect
       transform="matrix(4.2682919e-3,0,0,2.4305556e-2,11.329271,611.71447)"
       y="232.36218"
       x="157.14285"
       height="411.42856"
       width="234.28572"
       id="rect3169"
       style="opacity:1;fill:#ffffff;fill-opacity:1;fill-rule:nonzero;stroke:none;stroke-width:1;stroke-linecap:round;stroke-linejoin:round;stroke-miterlimit:4;stroke-dasharray:none;stroke-opacity:1" />
    <rect
       style="opacity:1;fill:#ffffff;fill-opacity:1;fill-rule:nonzero;stroke:none;stroke-width:1;stroke-linecap:round;stroke-linejoin:round;stroke-miterlimit:4;stroke-dasharray:none;stroke-opacity:1"
       id="rect3171"
       width="234.28572"
       height="411.42856"
       x="157.14285"
       y="232.36218"
       transform="matrix(4.2682919e-3,0,0,2.4305556e-2,11.329271,591.71447)" />
    <rect
       transform="matrix(4.2682919e-3,0,0,2.4305556e-2,11.329271,571.71447)"
       y="232.36218"
       x="157.14285"
       height="411.42856"
       width="234.28572"
       id="rect3173"
       style="opacity:1;fill:#ffffff;fill-opacity:1;fill-rule:nonzero;stroke:none;stroke-width:1;stroke-linecap:round;stroke-linejoin:round;stroke-miterlimit:4;stroke-dasharray:none;stroke-opacity:1" />
    <rect
       transform="matrix(4.2682919e-3,0,0,2.4305556e-2,11.329271,551.71447)"
       y="232.36218"
       x="157.14285"
       height="411.42856"
       width="234.28572"
       id="rect3175"
       style="opacity:1;fill:#ffffff;fill-opacity:1;fill-rule:nonzero;stroke:none;stroke-width:1;stroke-linecap:round;stroke-linejoin:round;stroke-miterlimit:4;stroke-dasharray:none;stroke-opacity:1" />
    <rect
       style="opacity:1;fill:#ffffff;fill-opacity:1;fill-rule:nonzero;stroke:none;stroke-width:1;stroke-linecap:round;stroke-linejoin:round;stroke-miterlimit:4;stroke-dasharray:none;stroke-opacity:1"
       id="rect3177"
       width="234.28572"
       height="411.42856"
       x="157.14285"
       y="232.36218"
       transform="matrix(4.2682919e-3,0,0,2.4305556e-2,11.329271,531.71447)" />
    <rect
       style="opacity:1;fill:#ffffff;fill-opacity:1;fill-rule:nonzero;stroke:none;stroke-width:1;stroke-linecap:round;stroke-linejoin:round;stroke-miterlimit:4;stroke-dasharray:none;stroke-opacity:1"
       id="rect3179"
       width="234.28572"
       height="411.42856"
       x="157.14285"
       y="232.36218"
       transform="matrix(4.2682919e-3,0,0,2.4305556e-2,11.329271,511.71447)" />
    <rect
       transform="matrix(4.2682919e-3,0,0,2.4305556e-2,11.329271,491.71447)"
       y="232.36218"
       x="157.14285"
       height="411.42856"
       width="234.28572"
       id="rect3181"
       style="opacity:1;fill:#ffffff;fill-opacity:1;fill-rule:nonzero;stroke:none;stroke-width:1;stroke-linecap:round;stroke-linejoin:round;stroke-miterlimit:4;stroke-dasharray:none;stroke-opacity:1" />
    <rect
       transform="matrix(4.2682919e-3,0,0,2.4305556e-2,11.329271,471.71447)"
       y="232.36218"
       x="157.14285"
       height="411.42856"
       width="234.28572"
       id="rect3183"
       style="opacity:1;fill:#ffffff;fill-opacity:1;fill-rule:nonzero;stroke:none;stroke-width:1;stroke-linecap:round;stroke-linejoin:round;stroke-miterlimit:4;stroke-dasharray:none;stroke-opacity:1" />
    <rect
       style="opacity:1;fill:#ffffff;fill-opacity:1;fill-rule:nonzero;stroke:none;stroke-width:1;stroke-linecap:round;stroke-linejoin:round;stroke-miterlimit:4;stroke-dasharray:none;stroke-opacity:1"
       id="rect3185"
       width="234.28572"
       height="411.42856"
       x="157.14285"
       y="232.36218"
       transform="matrix(4.2682919e-3,0,0,2.4305556e-2,11.329271,451.71447)" />
    <rect
       transform="matrix(4.2682919e-3,0,0,2.4305556e-2,11.329271,431.71447)"
       y="232.36218"
       x="157.14285"
       height="411.42856"
       width="234.28572"
       id="rect3187"
       style="opacity:1;fill:#ffffff;fill-opacity:1;fill-rule:nonzero;stroke:none;stroke-width:1;stroke-linecap:round;stroke-linejoin:round;stroke-miterlimit:4;stroke-dasharray:none;stroke-opacity:1" />
    <rect
       style="opacity:1;fill:#ffffff;fill-opacity:1;fill-rule:nonzero;stroke:none;stroke-width:1;stroke-linecap:round;stroke-linejoin:round;stroke-miterlimit:4;stroke-dasharray:none;stroke-opacity:1"
       id="rect3189"
       width="234.28572"
       height="411.42856"
       x="157.14285"
       y="232.36218"
       transform="matrix(4.2682919e-3,0,0,2.4305556e-2,11.329271,411.71447)" />
    <rect
       style="opacity:1;fill:#ffffff;fill-opacity:1;fill-rule:nonzero;stroke:none;stroke-width:1;stroke-linecap:round;stroke-linejoin:round;stroke-miterlimit:4;stroke-dasharray:none;stroke-opacity:1"
       id="rect3191"
       width="234.28572"
       height="411.42856"
       x="157.14285"
       y="232.36218"
       transform="matrix(4.2682919e-3,0,0,2.4305556e-2,11.329271,391.71447)" />
    <rect
       transform="matrix(4.2682919e-3,0,0,2.4305556e-2,11.329271,371.71447)"
       y="232.36218"
       x="157.14285"
       height="411.42856"
       width="234.28572"
       id="rect3193"
       style="opacity:1;fill:#ffffff;fill-opacity:1;fill-rule:nonzero;stroke:none;stroke-width:1;stroke-linecap:round;stroke-linejoin:round;stroke-miterlimit:4;stroke-dasharray:none;stroke-opacity:1" />
    <rect
       style="opacity:1;fill:#ffffff;fill-opacity:1;fill-rule:nonzero;stroke:none;stroke-width:1;stroke-linecap:round;stroke-linejoin:round;stroke-miterlimit:4;stroke-dasharray:none;stroke-opacity:1"
       id="rect3195"
       width="234.28572"
       height="411.42856"
       x="157.14285"
       y="232.36218"
       transform="matrix(4.2682919e-3,0,0,2.4305556e-2,11.329271,351.71447)" />
    <rect
       style="opacity:1;fill:#ffffff;fill-opacity:1;fill-rule:nonzero;stroke:none;stroke-width:1;stroke-linecap:round;stroke-linejoin:round;stroke-miterlimit:4;stroke-dasharray:none;stroke-opacity:1"
       id="rect3213"
       width="234.28572"
       height="411.42856"
       x="157.14285"
       y="232.36218"
       transform="matrix(4.2682919e-3,0,0,2.4305556e-2,11.329271,191.71447)" />
    <rect
       transform="matrix(4.2682919e-3,0,0,2.4305556e-2,11.329271,171.71447)"
       y="232.36218"
       x="157.14285"
       height="411.42856"
       width="234.28572"
       id="rect3215"
       style="opacity:1;fill:#ffffff;fill-opacity:1;fill-rule:nonzero;stroke:none;stroke-width:1;stroke-linecap:round;stroke-linejoin:round;stroke-miterlimit:4;stroke-dasharray:none;stroke-opacity:1" />
    <rect
       transform="matrix(4.2682919e-3,0,0,2.4305556e-2,11.329271,151.71447)"
       y="232.36218"
       x="157.14285"
       height="411.42856"
       width="234.28572"
       id="rect3217"
       style="opacity:1;fill:#ffffff;fill-opacity:1;fill-rule:nonzero;stroke:none;stroke-width:1;stroke-linecap:round;stroke-linejoin:round;stroke-miterlimit:4;stroke-dasharray:none;stroke-opacity:1" />
    <rect
       style="opacity:1;fill:#ffffff;fill-opacity:1;fill-rule:nonzero;stroke:none;stroke-width:1;stroke-linecap:round;stroke-linejoin:round;stroke-miterlimit:4;stroke-dasharray:none;stroke-opacity:1"
       id="rect3219"
       width="234.28572"
       height="411.42856"
       x="157.14285"
       y="232.36218"
       transform="matrix(4.2682919e-3,0,0,2.4305556e-2,11.329271,131.71447)" />
    <rect
       style="opacity:1;fill:#ffffff;fill-opacity:1;fill-rule:nonzero;stroke:none;stroke-width:1;stroke-linecap:round;stroke-linejoin:round;stroke-miterlimit:4;stroke-dasharray:none;stroke-opacity:1"
       id="rect3221"
       width="234.28572"
       height="411.42856"
       x="157.14285"
       y="232.36218"
       transform="matrix(4.2682919e-3,0,0,2.4305556e-2,11.329271,111.71447)" />
    <rect
       transform="matrix(4.2682919e-3,0,0,2.4305556e-2,11.329271,91.714472)"
       y="232.36218"
       x="157.14285"
       height="411.42856"
       width="234.28572"
       id="rect3223"
       style="opacity:1;fill:#ffffff;fill-opacity:1;fill-rule:nonzero;stroke:none;stroke-width:1;stroke-linecap:round;stroke-linejoin:round;stroke-miterlimit:4;stroke-dasharray:none;stroke-opacity:1" />
    <rect
       style="opacity:1;fill:#ffffff;fill-opacity:1;fill-rule:nonzero;stroke:none;stroke-width:1;stroke-linecap:round;stroke-linejoin:round;stroke-miterlimit:4;stroke-dasharray:none;stroke-opacity:1"
       id="rect3225"
       width="234.28572"
       height="411.42856"
       x="157.14285"
       y="232.36218"
       transform="matrix(4.2682919e-3,0,0,2.4305556e-2,11.329271,71.714472)" />
    <rect
       transform="matrix(8.1097537e-2,0,0,2.4305556e-2,-9.7438994,56.714491)"
       y="232.36218"
       x="157.14285"
       height="411.42856"
       width="234.28572"
       id="rect3227"
       style="opacity:1;fill:#ffffff;fill-opacity:1;fill-rule:nonzero;stroke:none;stroke-width:1;stroke-linecap:round;stroke-linejoin:round;stroke-miterlimit:4;stroke-dasharray:none;stroke-opacity:1" />
    <rect
       style="opacity:1;fill:#ffffff;fill-opacity:1;fill-rule:nonzero;stroke:none;stroke-width:1;stroke-linecap:round;stroke-linejoin:round;stroke-miterlimit:4;stroke-dasharray:none;stroke-opacity:1"
       id="rect3235"
       width="234.28572"
       height="411.42856"
       x="157.14285"
       y="232.36218"
       transform="matrix(8.1097537e-2,0,0,2.4305556e-2,-9.7438994,1026.7145)" />
    <rect
       style="opacity:1;fill:#ffffff;fill-opacity:1;fill-rule:nonzero;stroke:none;stroke-width:1;stroke-linecap:round;stroke-linejoin:round;stroke-miterlimit:4;stroke-dasharray:none;stroke-opacity:1"
       id="rect4208"
       width="8.9204817"
       height="32.762497"
       x="8.9204817"
       y="981.64709"
       transform="matrix(0.5605078,0,0,0.9156811,-0.9999988,78.486481)" />
    <rect
       transform="matrix(0.5605078,0,0,0.9156811,10.999999,78.486492)"
       y="981.64709"
       x="8.9204817"
       height="32.762497"
       width="8.9204817"
       id="rect4210"
       style="opacity:1;fill:#ffffff;fill-opacity:1;fill-rule:nonzero;stroke:none;stroke-width:1;stroke-linecap:round;stroke-linejoin:round;stroke-miterlimit:4;stroke-dasharray:none;stroke-opacity:1" />
    <rect
       transform="matrix(0.5605078,0,0,0.9156811,-0.9999988,-241.51352)"
       y="981.64709"
       x="8.9204817"
       height="32.762497"
       width="8.9204817"
       id="rect4212"
       style="opacity:1;fill:#ffffff;fill-opacity:1;fill-rule:nonzero;stroke:none;stroke-width:1;stroke-linecap:round;stroke-linejoin:round;stroke-miterlimit:4;stroke-dasharray:none;stroke-opacity:1" />
    <rect
       style="opacity:1;fill:#ffffff;fill-opacity:1;fill-rule:nonzero;stroke:none;stroke-width:1;stroke-linecap:round;stroke-linejoin:round;stroke-miterlimit:4;stroke-dasharray:none;stroke-opacity:1"
       id="rect4214"
       width="8.9204817"
       height="32.762497"
       x="8.9204817"
       y="981.64709"
       transform="matrix(0.5605078,0,0,0.9156811,10.999999,-241.51351)" />
    <rect
       style="opacity:1;fill:#ffffff;fill-opacity:1;fill-rule:nonzero;stroke:none;stroke-width:1;stroke-linecap:round;stroke-linejoin:round;stroke-miterlimit:4;stroke-dasharray:none;stroke-opacity:1"
       id="rect4216"
       width="8.9204817"
       height="32.762497"
       x="8.9204817"
       y="981.64709"
       transform="matrix(0.5605078,0,0,0.9156811,-0.9999988,-801.51353)" />
    <rect
       transform="matrix(0.5605078,0,0,0.9156811,10.999999,-801.51352)"
       y="981.64709"
       x="8.9204817"
       height="32.762497"
       width="8.9204817"
       id="rect4218"
       style="opacity:1;fill:#ffffff;fill-opacity:1;fill-rule:nonzero;stroke:none;stroke-width:1;stroke-linecap:round;stroke-linejoin:round;stroke-miterlimit:4;stroke-dasharray:none;stroke-opacity:1" />
    <text
       xml:space="preserve"
       style="font-size:20px;font-style:normal;font-variant:normal;font-weight:normal;font-stretch:normal;text-align:start;line-height:125%;writing-mode:lr-tb;text-anchor:start;opacity:1;fill:#ffffff;fill-opacity:1;fill-rule:nonzero;stroke:none;stroke-width:1;stroke-linecap:round;stroke-linejoin:round;stroke-miterlimit:4;stroke-dasharray:none;stroke-opacity:1;font-family:Impact"
       x="13"
       y="904.36218"
       id="text4228"
       sodipodi:linespacing="125%"
       transform="matrix(0.653339,0,0,3.1030303,-3.5699653,-1858.9011)"><tspan
         sodipodi:role="line"
         id="tspan4230"
         x="13"
         y="904.36218">4 2</tspan></text>
  </g>
</svg>
