<?xml version="1.0" encoding="UTF-8" standalone="no"?>
<!-- Created with Inkscape (http://www.inkscape.org/) -->
<svg
   xmlns:dc="http://purl.org/dc/elements/1.1/"
   xmlns:cc="http://web.resource.org/cc/"
   xmlns:rdf="http://www.w3.org/1999/02/22-rdf-syntax-ns#"
   xmlns:svg="http://www.w3.org/2000/svg"
   xmlns="http://www.w3.org/2000/svg"
   xmlns:sodipodi="http://sodipodi.sourceforge.net/DTD/sodipodi-0.dtd"
   xmlns:inkscape="http://www.inkscape.org/namespaces/inkscape"
   width="744.09448819"
   height="1052.3622047"
   id="svg2"
   sodipodi:version="0.32"
   inkscape:version="0.45"
   sodipodi:docbase="/home/william/Desktop"
   sodipodi:docname="static.svg"
   inkscape:output_extension="org.inkscape.output.svg.inkscape"
   inkscape:export-filename="/home/william/Desktop/static.png"
   inkscape:export-xdpi="90"
   inkscape:export-ydpi="90"
   sodipodi:modified="TRUE">
  <defs
     id="defs4" />
  <sodipodi:namedview
     id="base"
     pagecolor="#ffffff"
     bordercolor="#666666"
     borderopacity="1.0"
     gridtolerance="10000"
     guidetolerance="10"
     objecttolerance="10"
     inkscape:pageopacity="0.0"
     inkscape:pageshadow="2"
     inkscape:zoom="2.3359376"
     inkscape:cx="128"
     inkscape:cy="127.99999"
     inkscape:document-units="px"
     inkscape:current-layer="layer1" />
  <metadata
     id="metadata7">
    <rdf:RDF>
      <cc:Work
         rdf:about="">
        <dc:format>image/svg+xml</dc:format>
        <dc:type
           rdf:resource="http://purl.org/dc/dcmitype/StillImage" />
      </cc:Work>
    </rdf:RDF>
  </metadata>
  <g
     inkscape:label="Layer 1"
     inkscape:groupmode="layer"
     id="layer1">
    <g
       id="g14867">
      <rect
         transform="matrix(0.778836,0,0,0.7963379,-1.8754579,218.16149)"
         y="726.07458"
         x="2.4080267"
         height="321.47156"
         width="328.69565"
         id="rect2160"
         style="opacity:1;fill:#ffffff;fill-opacity:0;fill-rule:evenodd;stroke:none;stroke-width:1;stroke-linecap:round;stroke-linejoin:round;stroke-miterlimit:4;stroke-dasharray:none;stroke-opacity:1" />
      <path
         transform="matrix(0.5964912,0,0,0.6347826,103.03538,290.65545)"
         id="path4108"
         d="M 254.28761,825.90066 L 249.57858,811.34547 L 224.32106,799.35885 L 206.34113,808.77691 L 205.48494,831.03778 L 238.44815,848.58962 L 253.43142,837.03109 L 254.28761,825.90066 z "
         style="opacity:1;fill:#95de66;fill-opacity:1;fill-rule:evenodd;stroke:none;stroke-width:1;stroke-linecap:round;stroke-linejoin:round;stroke-miterlimit:4;stroke-dasharray:none;stroke-opacity:1" />
      <path
         transform="matrix(0.3846154,0,0,0.4525547,2.8978645,439.71448)"
         id="path4110"
         d="M 23.545149,803.2117 L 8.1337788,816.0545 L 4.7090298,840.88393 L 16.267558,860.57624 L 47.518392,861.86052 L 60.361201,824.61638 L 59.505013,804.92407 L 23.545149,803.2117 z "
         style="opacity:1;fill:#93c07b;fill-opacity:1;fill-rule:evenodd;stroke:none;stroke-width:1;stroke-linecap:round;stroke-linejoin:round;stroke-miterlimit:4;stroke-dasharray:none;stroke-opacity:1" />
      <path
         transform="translate(25.257523,3.424749)"
         id="path4114"
         d="M 43.237456,803.63979 L 35.531771,812.62976 L 32.107022,828.46922 L 24.401336,836.1749 L 28.682273,843.0244 L 36.816051,838.31537 L 44.94983,823.76019 L 56.936452,817.76688 L 55.224077,807.92073 L 43.237456,803.63979 z "
         style="opacity:1;fill:#5da149;fill-opacity:1;fill-rule:evenodd;stroke:none;stroke-width:1;stroke-linecap:round;stroke-linejoin:round;stroke-miterlimit:4;stroke-dasharray:none;stroke-opacity:1" />
      <path
         sodipodi:nodetypes="ccccccccccccccc"
         transform="matrix(0.8267717,0,0,0.6310679,29.589022,325.50326)"
         id="path4116"
         d="M 11.558528,848.58962 L 7.7056852,861.43243 L 11.558528,874.70333 L 18.408026,880.26854 L 29.538459,876.84379 L 39.384613,881.12473 L 49.230766,879.84045 L 62.073575,874.70333 L 55.224077,858.43577 L 62.073575,837.45919 L 54.795983,837.03109 L 40.2408,846.02106 L 28.682273,852.44246 L 18.836119,847.30534 L 11.558528,848.58962 z "
         style="opacity:1;fill:#97c54d;fill-opacity:1;fill-rule:evenodd;stroke:none;stroke-width:1;stroke-linecap:round;stroke-linejoin:round;stroke-miterlimit:4;stroke-dasharray:none;stroke-opacity:1" />
      <path
         transform="translate(14.127089,-1.2842808)"
         id="path4118"
         d="M 95.464877,801.07123 L 83.90635,801.92741 L 79.19732,819.47925 L 84.334443,836.603 L 74.48829,846.87724 L 83.478256,851.58627 L 96.749158,843.0244 L 96.749158,823.76019 L 105.31103,813.91404 L 95.464877,801.07123 z "
         style="opacity:1;fill:#90dc84;fill-opacity:1;fill-rule:evenodd;stroke:none;stroke-width:1;stroke-linecap:round;stroke-linejoin:round;stroke-miterlimit:4;stroke-dasharray:none;stroke-opacity:1" />
      <path
         sodipodi:nodetypes="cccccccc"
         transform="translate(15.41137,0.4280936)"
         id="path4120"
         d="M 80.053507,869.13811 L 77.484945,877.69999 L 86.474911,888.40233 L 99.31772,883.2652 L 113.8729,884.97758 L 119.01003,869.56621 L 105.73912,861.86052 L 80.053507,869.13811 z "
         style="opacity:1;fill:#799955;fill-opacity:1;fill-rule:evenodd;stroke:none;stroke-width:1;stroke-linecap:round;stroke-linejoin:round;stroke-miterlimit:4;stroke-dasharray:none;stroke-opacity:1" />
      <path
         id="path4122"
         d="M 175.51838,813.91404 L 161.39129,833.17825 L 168.66889,843.0244 L 181.0836,844.30868 L 191.35785,836.1749 L 189.21738,817.76688 L 175.51838,813.91404 z "
         style="opacity:1;fill:#90dc84;fill-opacity:1;fill-rule:evenodd;stroke:none;stroke-width:1;stroke-linecap:round;stroke-linejoin:round;stroke-miterlimit:4;stroke-dasharray:none;stroke-opacity:1" />
      <path
         id="path4124"
         d="M 218.32775,835.74681 L 202.91638,843.0244 L 201.6321,861.00433 L 223.89296,875.98761 L 242.72908,870.85049 L 245.29764,858.86387 L 233.31102,845.16487 L 218.32775,835.74681 z "
         style="opacity:1;fill:#68b861;fill-opacity:1;fill-rule:evenodd;stroke:none;stroke-width:1;stroke-linecap:round;stroke-linejoin:round;stroke-miterlimit:4;stroke-dasharray:none;stroke-opacity:1" />
      <path
         id="path4126"
         d="M 202.06019,801.07123 L 196.92307,811.34547 L 201.6321,821.61972 L 212.76253,808.77691 L 202.06019,801.07123 z "
         style="opacity:1;fill:#6fc153;fill-opacity:1;fill-rule:evenodd;stroke:none;stroke-width:1;stroke-linecap:round;stroke-linejoin:round;stroke-miterlimit:4;stroke-dasharray:none;stroke-opacity:1" />
      <path
         transform="translate(-4.2809362,3.424749)"
         id="path4128"
         d="M 140.41471,804.06788 L 140.41471,832.32206 L 145.97992,834.46253 L 160.9632,810.48929 L 156.25417,804.49598 L 140.41471,804.06788 z "
         style="opacity:1;fill:#95de66;fill-opacity:1;fill-rule:evenodd;stroke:none;stroke-width:1;stroke-linecap:round;stroke-linejoin:round;stroke-miterlimit:4;stroke-dasharray:none;stroke-opacity:1" />
      <path
         id="path4130"
         d="M 152.40133,856.7234 L 147.6923,872.56286 L 151.97324,899.10467 L 163.53176,903.3856 L 170.38126,870.42239 L 161.81939,855.86721 L 152.40133,856.7234 z "
         style="opacity:1;fill:#8cb45a;fill-opacity:1;fill-rule:evenodd;stroke:none;stroke-width:1;stroke-linecap:round;stroke-linejoin:round;stroke-miterlimit:4;stroke-dasharray:none;stroke-opacity:1" />
      <path
         id="path4132"
         d="M 206.76922,887.97423 L 188.36119,893.96754 L 181.0836,918.36888 L 190.07357,941.91403 L 205.48494,937.63309 L 222.18059,906.38226 L 206.76922,887.97423 z "
         style="opacity:1;fill:#6fc153;fill-opacity:1;fill-rule:evenodd;stroke:none;stroke-width:1;stroke-linecap:round;stroke-linejoin:round;stroke-miterlimit:4;stroke-dasharray:none;stroke-opacity:1" />
      <path
         sodipodi:nodetypes="cccccccc"
         transform="translate(-2.1404681,-6.8494979)"
         id="path4134"
         d="M 24.82943,899.96085 L 15.41137,923.07791 L 19.692307,950.04781 L 29.966553,934.63643 L 45.806018,936.7769 L 53.083609,915.80031 L 48.374579,899.96085 L 24.82943,899.96085 z "
         style="opacity:1;fill:#8cb45a;fill-opacity:1;fill-rule:evenodd;stroke:none;stroke-width:1;stroke-linecap:round;stroke-linejoin:round;stroke-miterlimit:4;stroke-dasharray:none;stroke-opacity:1" />
      <path
         sodipodi:nodetypes="cccccccccc"
         id="path4136"
         d="M 71.919728,899.53276 L 65.498324,915.37223 L 61.645481,938.91737 L 71.063541,954.32874 L 85.618724,951.76018 L 83.050163,935.06453 L 98.461533,922.64982 L 95.036784,906.81035 L 80.909694,899.96085 L 71.919728,899.53276 z "
         style="opacity:1;fill:#90dc84;fill-opacity:1;fill-rule:evenodd;stroke:none;stroke-width:1;stroke-linecap:round;stroke-linejoin:round;stroke-miterlimit:4;stroke-dasharray:none;stroke-opacity:1" />
      <path
         id="path4138"
         d="M 122.00668,899.53276 L 114.72909,914.08794 L 118.15384,940.62975 L 125.85952,932.49597 L 133.13712,906.81035 L 122.00668,899.53276 z "
         style="opacity:1;fill:#68b861;fill-opacity:1;fill-rule:evenodd;stroke:none;stroke-width:1;stroke-linecap:round;stroke-linejoin:round;stroke-miterlimit:4;stroke-dasharray:none;stroke-opacity:1" />
      <path
         id="path4140"
         d="M 155.39798,918.36888 L 139.98661,932.06788 L 144.26755,944.91068 L 157.53845,964.60299 L 171.23745,950.90399 L 170.80935,925.21838 L 155.39798,918.36888 z "
         style="opacity:1;fill:#9aa754;fill-opacity:1;fill-rule:evenodd;stroke:none;stroke-width:1;stroke-linecap:round;stroke-linejoin:round;stroke-miterlimit:4;stroke-dasharray:none;stroke-opacity:1" />
      <path
         id="path4142"
         d="M 43.237456,953.04446 L 31.250834,959.89396 L 19.264213,978.30199 L 36.387958,1004.4157 L 66.782605,994.99764 L 70.635447,968.88393 L 43.237456,953.04446 z "
         style="opacity:1;fill:#97c54d;fill-opacity:1;fill-rule:evenodd;stroke:none;stroke-width:1;stroke-linecap:round;stroke-linejoin:round;stroke-miterlimit:4;stroke-dasharray:none;stroke-opacity:1" />
      <path
         id="path4144"
         d="M 103.59866,965.88727 L 92.468222,978.73008 L 100.17391,994.99764 L 110.87625,977.4458 L 103.59866,965.88727 z "
         style="opacity:1;fill:#95de66;fill-opacity:1;fill-rule:evenodd;stroke:none;stroke-width:1;stroke-linecap:round;stroke-linejoin:round;stroke-miterlimit:4;stroke-dasharray:none;stroke-opacity:1" />
      <path
         transform="translate(-4.2809362,3.8528426)"
         id="path4146"
         d="M 131.85284,944.48259 L 126.28762,968.45583 L 141.69899,983.43911 L 152.40133,970.5963 L 131.85284,944.48259 z "
         style="opacity:1;fill:#8cb45a;fill-opacity:1;fill-rule:evenodd;stroke:none;stroke-width:1;stroke-linecap:round;stroke-linejoin:round;stroke-miterlimit:4;stroke-dasharray:none;stroke-opacity:1" />
      <path
         id="path4148"
         d="M 181.0836,963.7468 L 172.52173,981.72674 L 179.37123,998.85048 L 195.63878,1000.1348 L 197.35116,980.44245 L 181.0836,963.7468 z "
         style="opacity:1;fill:#5da149;fill-opacity:1;fill-rule:evenodd;stroke:none;stroke-width:1;stroke-linecap:round;stroke-linejoin:round;stroke-miterlimit:4;stroke-dasharray:none;stroke-opacity:1" />
      <path
         id="path4150"
         d="M 218.75584,938.91737 L 203.77256,960.32205 L 213.19062,982.15483 L 225.60534,979.15817 L 235.0234,957.3254 L 228.60199,939.77356 L 218.75584,938.91737 z "
         style="opacity:1;fill:#8cb45a;fill-opacity:1;fill-rule:evenodd;stroke:none;stroke-width:1;stroke-linecap:round;stroke-linejoin:round;stroke-miterlimit:4;stroke-dasharray:none;stroke-opacity:1" />
      <path
         id="path4152"
         d="M 229.03009,887.97423 L 235.45149,909.80701 L 226.88962,929.07122 L 249.57858,935.92072 L 254.28761,908.95082 L 247.01002,892.25517 L 229.03009,887.97423 z "
         style="opacity:1;fill:#95de66;fill-opacity:1;fill-rule:evenodd;stroke:none;stroke-width:1;stroke-linecap:round;stroke-linejoin:round;stroke-miterlimit:4;stroke-dasharray:none;stroke-opacity:1" />
      <path
         id="path4154"
         d="M 244.44146,968.02774 L 235.45149,982.58292 L 234.5953,1002.2752 L 246.15383,1013.4057 L 255.57189,995.85382 L 244.44146,968.02774 z "
         style="opacity:1;fill:#d1e37b;fill-opacity:1;fill-rule:evenodd;stroke:none;stroke-width:1;stroke-linecap:round;stroke-linejoin:round;stroke-miterlimit:4;stroke-dasharray:none;stroke-opacity:1" />
      <path
         id="path4156"
         d="M 212.76253,994.99764 L 202.48828,1011.2652 L 209.76587,1030.5294 L 231.59865,1042.9441 L 239.73243,1027.9608 L 221.3244,1016.4023 L 212.76253,994.99764 z "
         style="opacity:1;fill:#90dc84;fill-opacity:1;fill-rule:evenodd;stroke:none;stroke-width:1;stroke-linecap:round;stroke-linejoin:round;stroke-miterlimit:4;stroke-dasharray:none;stroke-opacity:1" />
      <path
         transform="translate(-5.5652171,0.4280936)"
         id="path4158"
         d="M 22.260868,1012.1214 L 16.695651,1026.2485 L 20.1204,1041.6598 L 27.397992,1042.516 L 33.391302,1024.5361 L 39.812707,1016.8304 L 22.260868,1012.1214 z "
         style="opacity:1;fill:#5da149;fill-opacity:1;fill-rule:evenodd;stroke:none;stroke-width:1;stroke-linecap:round;stroke-linejoin:round;stroke-miterlimit:4;stroke-dasharray:none;stroke-opacity:1" />
      <path
         id="path4160"
         d="M 61.217388,1041.6598 L 49.230766,1028.817 L 74.48829,1011.2652 L 81.765882,998.42239 L 90.327754,1012.1214 L 83.90635,1033.9542 L 61.217388,1041.6598 z "
         style="opacity:1;fill:#9aa754;fill-opacity:1;fill-rule:evenodd;stroke:none;stroke-width:1;stroke-linecap:round;stroke-linejoin:round;stroke-miterlimit:4;stroke-dasharray:none;stroke-opacity:1" />
      <path
         id="path4162"
         d="M 113.44481,1002.2752 L 100.17391,1015.9742 L 104.88294,1037.807 L 128.85618,1042.516 L 117.72575,1024.5361 L 113.44481,1002.2752 z "
         style="opacity:1;fill:#d1e37b;fill-opacity:1;fill-rule:evenodd;stroke:none;stroke-width:1;stroke-linecap:round;stroke-linejoin:round;stroke-miterlimit:4;stroke-dasharray:none;stroke-opacity:1" />
      <path
         id="path4164"
         d="M 144.69564,992.42908 L 132.70902,1006.9843 L 135.70568,1023.6799 L 150.26086,1041.6598 L 163.95986,1022.8237 L 160.53511,994.99764 L 144.69564,992.42908 z "
         style="opacity:1;fill:#799955;fill-opacity:1;fill-rule:evenodd;stroke:none;stroke-width:1;stroke-linecap:round;stroke-linejoin:round;stroke-miterlimit:4;stroke-dasharray:none;stroke-opacity:1" />
      <path
         id="path4166"
         d="M 173.37792,1012.5495 L 174.2341,1027.9608 L 177.23076,1042.0879 L 189.21738,1048.0812 L 202.06019,1035.6665 L 190.50166,1012.9776 L 173.37792,1012.5495 z "
         style="opacity:1;fill:#68b861;fill-opacity:1;fill-rule:evenodd;stroke:none;stroke-width:1;stroke-linecap:round;stroke-linejoin:round;stroke-miterlimit:4;stroke-dasharray:none;stroke-opacity:1" />
      <path
         sodipodi:nodetypes="cccccc"
         id="path4168"
         d="M 29.966553,839.17156 L 12.842809,844.73678 L 4.2809362,862.71671 L 8.989966,886.26186 L 31.250834,864.42908 L 29.966553,839.17156 z "
         style="opacity:1;fill:#68b861;fill-opacity:1;fill-rule:evenodd;stroke:none;stroke-width:1;stroke-linecap:round;stroke-linejoin:round;stroke-miterlimit:4;stroke-dasharray:none;stroke-opacity:1" />
      <path
         id="path4170"
         d="M 129.28427,841.31203 L 114.301,850.30199 L 120.29431,856.2953 L 135.27758,855.86721 L 129.28427,841.31203 z "
         style="opacity:1;fill:#5da149;fill-opacity:1;fill-rule:evenodd;stroke:none;stroke-width:1;stroke-linecap:round;stroke-linejoin:round;stroke-miterlimit:4;stroke-dasharray:none;stroke-opacity:1" />
      <path
         id="path4172"
         d="M 187.07691,856.2953 L 177.23076,864.42908 L 181.5117,880.69664 L 199.06353,881.55283 L 187.07691,856.2953 z "
         style="opacity:1;fill:#97c54d;fill-opacity:1;fill-rule:evenodd;stroke:none;stroke-width:1;stroke-linecap:round;stroke-linejoin:round;stroke-miterlimit:4;stroke-dasharray:none;stroke-opacity:1" />
      <path
         id="path4174"
         d="M 106.59531,932.49597 L 97.177252,941.48593 L 96.321065,954.32874 L 110.02006,954.32874 L 106.59531,932.49597 z "
         style="opacity:1;fill:#5da149;fill-opacity:1;fill-rule:evenodd;stroke:none;stroke-width:1;stroke-linecap:round;stroke-linejoin:round;stroke-miterlimit:4;stroke-dasharray:none;stroke-opacity:1" />
      <path
         id="path4176"
         d="M 5.5652171,958.18159 L 11.558528,968.02774 L 8.5618724,989.00433 L 2.9966553,983.43911 L 5.5652171,958.18159 z "
         style="opacity:1;fill:#799955;fill-opacity:1;fill-rule:evenodd;stroke:none;stroke-width:1;stroke-linecap:round;stroke-linejoin:round;stroke-miterlimit:4;stroke-dasharray:none;stroke-opacity:1" />
      <path
         id="path4178"
         d="M 31.678928,937.205 L 26.113711,948.33543 L 38.100332,948.76353 L 31.678928,937.205 z "
         style="opacity:1;fill:#95de66;fill-opacity:1;fill-rule:evenodd;stroke:none;stroke-width:1;stroke-linecap:round;stroke-linejoin:round;stroke-miterlimit:4;stroke-dasharray:none;stroke-opacity:1" />
      <path
         id="path4180"
         d="M 145.97992,902.95751 L 142.55518,914.08794 L 150.68895,915.37222 L 145.97992,902.95751 z "
         style="opacity:1;fill:#93c07b;fill-opacity:1;fill-rule:evenodd;stroke:none;stroke-width:1;stroke-linecap:round;stroke-linejoin:round;stroke-miterlimit:4;stroke-dasharray:none;stroke-opacity:1" />
      <path
         id="path4182"
         d="M 84.762537,886.68995 L 74.060196,889.68661 L 90.755848,894.82373 L 84.762537,886.68995 z "
         style="opacity:1;fill:#93c07b;fill-opacity:1;fill-rule:evenodd;stroke:none;stroke-width:1;stroke-linecap:round;stroke-linejoin:round;stroke-miterlimit:4;stroke-dasharray:none;stroke-opacity:1" />
      <path
         id="path4184"
         d="M 150.26086,842.16821 L 142.55518,848.16153 L 157.11036,847.30534 L 150.26086,842.16821 z "
         style="opacity:1;fill:#93c07b;fill-opacity:1;fill-rule:evenodd;stroke:none;stroke-width:1;stroke-linecap:round;stroke-linejoin:round;stroke-miterlimit:4;stroke-dasharray:none;stroke-opacity:1" />
      <path
         id="path4186"
         d="M 79.625413,833.17825 L 73.632103,840.02775 L 80.053507,841.74012 L 79.625413,833.17825 z "
         style="opacity:1;fill:#93c07b;fill-opacity:1;fill-rule:evenodd;stroke:none;stroke-width:1;stroke-linecap:round;stroke-linejoin:round;stroke-miterlimit:4;stroke-dasharray:none;stroke-opacity:1" />
      <path
         id="path4188"
         d="M 46.234111,806.20835 L 36.387958,812.20166 L 33.391302,827.61303 L 39.384613,834.46253 L 50.515047,820.33544 L 46.234111,806.20835 z "
         style="opacity:1;fill:#9aa754;fill-opacity:1;fill-rule:evenodd;stroke:none;stroke-width:1;stroke-linecap:round;stroke-linejoin:round;stroke-miterlimit:4;stroke-dasharray:none;stroke-opacity:1" />
      <path
         id="path4190"
         d="M 106.16722,896.10801 L 100.17391,901.67323 L 106.16722,911.51938 L 106.16722,896.10801 z "
         style="opacity:1;fill:#9aa754;fill-opacity:1;fill-rule:evenodd;stroke:none;stroke-width:1;stroke-linecap:round;stroke-linejoin:round;stroke-miterlimit:4;stroke-dasharray:none;stroke-opacity:1" />
      <path
         id="path4192"
         d="M 197.77925,950.04781 L 187.50501,948.76353 L 181.93979,955.61302 L 191.78594,956.89731 L 197.77925,950.04781 z "
         style="opacity:1;fill:#6fc153;fill-opacity:1;fill-rule:evenodd;stroke:none;stroke-width:1;stroke-linecap:round;stroke-linejoin:round;stroke-miterlimit:4;stroke-dasharray:none;stroke-opacity:1" />
      <path
         id="path4194"
         d="M 164.38795,971.88058 L 150.68895,983.43911 L 159.25083,986.43577 L 164.38795,971.88058 z "
         style="opacity:1;fill:#93c07b;fill-opacity:1;fill-rule:evenodd;stroke:none;stroke-width:1;stroke-linecap:round;stroke-linejoin:round;stroke-miterlimit:4;stroke-dasharray:none;stroke-opacity:1" />
      <path
         id="path4196"
         d="M 116.86956,983.8672 L 114.301,993.28526 L 125.43143,1002.2752 L 116.86956,983.8672 z "
         style="opacity:1;fill:#93c07b;fill-opacity:1;fill-rule:evenodd;stroke:none;stroke-width:1;stroke-linecap:round;stroke-linejoin:round;stroke-miterlimit:4;stroke-dasharray:none;stroke-opacity:1" />
      <path
         id="path4198"
         d="M 90.327754,962.89062 L 77.056852,967.59965 L 78.341133,983.8672 L 90.327754,962.89062 z "
         style="opacity:1;fill:#6fc153;fill-opacity:1;fill-rule:evenodd;stroke:none;stroke-width:1;stroke-linecap:round;stroke-linejoin:round;stroke-miterlimit:4;stroke-dasharray:none;stroke-opacity:1" />
      <path
         id="path4200"
         d="M 56.936452,890.1147 L 65.926418,890.54279 L 59.933107,905.09798 L 56.936452,890.1147 z "
         style="opacity:1;fill:#d1e37b;fill-opacity:1;fill-rule:evenodd;stroke:none;stroke-width:1;stroke-linecap:round;stroke-linejoin:round;stroke-miterlimit:4;stroke-dasharray:none;stroke-opacity:1" />
      <path
         id="path4202"
         d="M 218.32775,819.05116 L 206.76922,825.90066 L 214.4749,831.03778 L 218.32775,819.05116 z "
         style="opacity:1;fill:#93c07b;fill-opacity:1;fill-rule:evenodd;stroke:none;stroke-width:1;stroke-linecap:round;stroke-linejoin:round;stroke-miterlimit:4;stroke-dasharray:none;stroke-opacity:1" />
      <path
         id="path4204"
         d="M 123.29096,811.77357 L 119.01003,832.75016 L 125.85952,830.60969 L 123.29096,811.77357 z "
         style="opacity:1;fill:#93c07b;fill-opacity:1;fill-rule:evenodd;stroke:none;stroke-width:1;stroke-linecap:round;stroke-linejoin:round;stroke-miterlimit:4;stroke-dasharray:none;stroke-opacity:1" />
      <path
         id="path4206"
         d="M 220.04012,879.41236 L 208.0535,882.83711 L 217.47156,887.97423 L 220.04012,879.41236 z "
         style="opacity:1;fill:#93c07b;fill-opacity:1;fill-rule:evenodd;stroke:none;stroke-width:1;stroke-linecap:round;stroke-linejoin:round;stroke-miterlimit:4;stroke-dasharray:none;stroke-opacity:1" />
    </g>
  </g>
</svg>
